# xmcd CD database file
#
# Track frame offsets:
#	150
#	28925
#	61082
#	93422
#	122548
#	134511
#	158414
#	187368
#	219656
#
# Disc length: 3422 seconds
#
# Revision: 0
# Processed by: cddbd v1.5.2PL0 Copyright (c) Steve Scherf et al.
# Submitted via: CDex 1.70beta2
#
DISCID=7e0d5c09
DTITLE=David Newman - Love, Peace, Chant
DYEAR=2008
DGENRE=New Age
TTITLE0=He Maha Lakshmi
TTITLE1=Medley: Ganesh Gayatri/Rising Sun
TTITLE2=Mata Bhavani
TTITLE3=Medley: The Prophet/Hare Krishna
TTITLE4=Radhe Suite I: The Longing
TTITLE5=Radhe Suite II: The Dance
TTITLE6=Radhe Suite III: The Union
TTITLE7=Medley: Love, Peace And Freedom/Sita Ram
TTITLE8=Shiva Om
EXTD=YEAR: 2008
EXTT0=
EXTT1=
EXTT2=
EXTT3=
EXTT4=
EXTT5=
EXTT6=
EXTT7=
EXTT8=
PLAYORDER=
